# xmcd CD database file
#
# Track frame offsets:
#	150
#	11385
#	36234
#	50216
#	67873
#	74195
#	91317
#	102860
#	118736
#	140342
#	152857
#	161758
#	170613
#	201625
#	214161
#
# Disc length: 3034 seconds
#
# Revision: 0
# Processed by: cddbd v1.5.1PL2 Copyright (c) Steve Scherf et al.
# Submitted via: CDex 1.51
#
DISCID=e30bd80f
DTITLE=Tom Kenyon - Hathor Self Mastery
DYEAR=2006
DGENRE=New Age
TTITLE0=Introduction - Introduction
TTITLE1=Elohim - Chant
TTITLE2=First Exercise Intro - First Exercise Intro
TTITLE3=First Exercise Sound - First Exercise Sound
TTITLE4=Second Exercise Intro - Second Exercise Intro
TTITLE5=Second Exercise Sound - Second Exercise Sound
TTITLE6=Third Exercise Intro - Third Exercise Intro
TTITLE7=Third Exercise Sound - Third Exercise Sound
TTITLE8=Fourth Exercise Intro - Fourth Exercise Intro
TTITLE9=Fourth Exercise Sound - Fourth Exercise Sound
TTITLE10=Fifth Exercise Intro - Fifth Exercise Intro
TTITLE11=Fifth Exercise Sound - Fifth Exercise Sound
TTITLE12=Sixth Exercise Intro - Sixth Exercise Intro
TTITLE13=Sixth Exercise Sound - Sixth Exercise Sound
TTITLE14=Last - Exercise
EXTD=YEAR: 2006
EXTT0=
EXTT1=
EXTT2=
EXTT3=
EXTT4=
EXTT5=
EXTT6=
EXTT7=
EXTT8=
EXTT9=
EXTT10=
EXTT11=
EXTT12=
EXTT13=
EXTT14=
PLAYORDER=
